<svg xmlns="http://www.w3.org/2000/svg" viewBox="0 0 363.33 282.75"><defs><style>.cls-1{isolation:isolate;}.cls-2{fill:#c5f1ff;}.cls-3{fill:#ff6861;}.cls-4{fill:#ef4b4b;}.cls-5{fill:#fff;}.cls-6{fill:#49263e;}.cls-7{fill:#603655;}.cls-8{fill:#fec786;}.cls-9{fill:#4cb7d8;}.cls-10{fill:#fe9f73;}.cls-11{fill:#f07162;}.cls-12{fill:#fbfdfc;}.cls-13{fill:#1d1d1b;}.cls-14{opacity:0.8;}.cls-15{fill:#210b06;}.cls-16{fill:#febac7;}.cls-17{fill:#258d8c;}.cls-18{fill:#7fc6a6;}.cls-19{fill:#21111d;}.cls-20{fill:#ef3a4c;}.cls-21{fill:#f99247;}.cls-22{fill:#b9daf4;}.cls-23{fill:#4b4b4c;}.cls-24{fill:#fac78d;}.cls-25{fill:#ea824e;}.cls-26{fill:#995a47;}.cls-27{opacity:0.5;}.cls-28{fill:#d5e3fc;}.cls-29{fill:#b3cef4;}.cls-30{fill:#ea684e;}.cls-31{fill:#efbfb4;}.cls-32{fill:#e5a695;}.cls-33{mix-blend-mode:multiply;}.cls-34{fill:#fceeeb;}.cls-35{opacity:0.1;}.cls-36{fill:#a2c7fc;}.cls-37{fill:#caf2f9;}.cls-38{fill:#f0f8fa;}</style></defs><g class="cls-1"><g id="Layer_1" data-name="Layer 1"><path class="cls-2" d="M361.27,246.71l-.09.59s0,0,0,.07A41.59,41.59,0,0,1,320,282.75H34A31.06,31.06,0,0,1,3.17,247.62a2.36,2.36,0,0,0,0-.28l0-.13c0-.17,0-.34.07-.5A59.49,59.49,0,0,1,11,226q1.17-2,2.13-4a61.27,61.27,0,0,0,4.51-13.93c4.63-22.67-.5-48.88,12.3-78.35a112.35,112.35,0,0,1,6-11.93c23.37-40.19,58.38-37,70-32.92,12.64,4.5,22.87,11.8,44.66.56s81.93-40.93,121.75-21.55,23.23,60.44,36.43,75c6.49,7.17,12,10.73,17.44,14.14,8.85,5.57,17.44,10.76,29.53,30.66,3.17,5.2,5.35,14,6.41,24.37.45,4.41.7,9.09.74,13.93A169.37,169.37,0,0,1,361.27,246.71Z"/><path class="cls-3" d="M172,125.56V225.68H145.23L148.82,164,119.54,179.1s16.33-39.17,20.9-43.74c2.18-2.19,9.5-4.53,16.54-6.37,1.17-.31,2.34-.6,3.48-.88C166.73,126.58,172,125.56,172,125.56Z"/><path class="cls-3" d="M207.14,210.77l.77,14.91-23.18.1-.55-100.22s2.88.85,6.75,2.11l3.48,1.17c6.89,2.36,15,5.5,16.32,7.6,4,6.19,18.61,62.14,18.61,62.14Z"/><path class="cls-4" d="M230.86,199.56s2.83-2.09,1-5-8.07-5.11-9.91-4.41-6.63,2.17-6.63,2.17,4.5,7.83,4.76,8S230.86,199.56,230.86,199.56Z"/><path class="cls-4" d="M231.42,197.39s4,10.89-.25,13.78-12,4-15.29,2.61-5.54-5.76-5.17-6.08S231.42,197.39,231.42,197.39Z"/><polygon class="cls-3" points="172 125.56 186.14 127.3 203.99 206.31 184.84 225.68 172 225.68 160.24 140.14 172 125.56"/><path class="cls-4" d="M113.67,183.67s-3.27-1.3-2.18-4.57,6.53-7,8.49-6.75,7,.44,7,.44-2.39,8.7-2.61,8.92S113.67,183.67,113.67,183.67Z"/><path class="cls-4" d="M112.58,181.71s-1.09,11.54,3.7,13.28,12.62.87,15.45-1.31,3.92-7,3.48-7.18S112.58,181.71,112.58,181.71Z"/><path class="cls-5" d="M205.6,186l-11.19-23.66v-33.5l-3.48-1.17v34.67H160.46V128.11c-1.14.3-2.31.61-3.48.94v35.69h.61L147.53,186l-2.3,39.68h62.68Z"/><polygon points="145.44 225.69 145.01 225.66 147.4 186.05 148.71 147.32 149.14 147.33 147.84 186.07 145.44 225.69"/><rect x="147.68" y="149.64" width="0.44" height="6.92" transform="translate(-28.49 33.93) rotate(-11.95)"/><rect x="205.73" y="147.28" width="0.44" height="78.45" transform="translate(-9.06 10.52) rotate(-2.86)"/><rect x="202.3" y="151.13" width="5.68" height="0.44" transform="translate(1.57 304.81) rotate(-73.43)"/><path d="M122.52,172.63l-.4-.17c.11-.24,10.37-23.76,13.9-30.34,3.63-6.75,4.54-7.78,8.14-9.23s18.23-5.46,18.38-5.5l.11.42c-.15,0-14.78,4.07-18.33,5.49s-4.32,2.33-7.91,9S122.63,172.39,122.52,172.63Z"/><path d="M111.08,180.81a4.77,4.77,0,0,1,1.25-3.65c2.07-2.71,6-4.91,7.19-5a63.49,63.49,0,0,1,8.1.44l-.05.44a63.43,63.43,0,0,0-8-.45c-1.14.11-4.92,2.29-6.9,4.86a4.38,4.38,0,0,0-1.16,3.32Z"/><path d="M220.76,167.84c-.08-.27-8.07-26.57-9.4-29.71s-5.73-4.71-5.77-4.72l-16.7-6.17.15-.41,16.7,6.17c.19.07,4.64,1.73,6,5s9.09,28.67,9.42,29.75Z"/><polygon points="205.75 186.59 194.19 162.39 194.19 129.04 194.63 129.04 194.63 162.29 206.14 186.41 205.75 186.59"/><polygon points="191.15 162.56 167.24 162.56 167.24 162.13 190.71 162.13 190.71 147.9 191.15 147.9 191.15 162.56"/><rect x="160.24" y="128.11" width="0.44" height="27.46"/><path class="cls-6" d="M145.11,184.15s-3.48,23.2,26.84,28.49c30,5.24,37.72-16.18,37.72-16.18Z"/><ellipse class="cls-7" cx="177.46" cy="189.97" rx="8.6" ry="32.89" transform="translate(-42.12 329.14) rotate(-79.31)"/><path class="cls-8" d="M156.25,192.85a91.73,91.73,0,0,1,26.44-1,180,180,0,0,1,26.36,5.6s-2.38,2.21-9.58,2.83C190,201.06,173.7,200,156.25,192.85Z"/><path class="cls-5" d="M165.87,198.61a5.55,5.55,0,0,0,4.61,1.12h0l.26-.07h0l.26-.06h0a5.6,5.6,0,0,0,3.23-8.15l-6.82-11.87-1.38.34-.52.14-1.37.34-.37,13.69A5.51,5.51,0,0,0,165.87,198.61Zm7.89-6.9a5.05,5.05,0,0,1,.28,4.51,5.1,5.1,0,0,1-1.92,2.28,2,2,0,0,0,.14-.25c.72-1.44.58-3.52-.41-6.2-1.9-5.11-4.32-10.24-5-11.76l.35-.09Zm-7.49-11.29c.66,1.38,3.14,6.61,5.07,11.82,1.17,3.13.89,4.86.45,5.75a2.47,2.47,0,0,1-.93,1l-4.69-18.59Zm4.07,18.75a2.42,2.42,0,0,1-1.32-.48c-.81-.58-1.87-2-2.34-5.27-.77-5.51-1.07-11.28-1.14-12.82l.11,0Zm-6-5.07.36-13.28.35-.08c.08,1.69.39,7.35,1.14,12.75.4,2.82,1.26,4.73,2.57,5.65l.25.16a5.1,5.1,0,0,1-4.67-5.2Z"/><path class="cls-6" d="M167.67,180.21l-3.46.87a.58.58,0,0,1-.7-.42h0a.58.58,0,0,1,.42-.7l3.45-.87a.59.59,0,0,1,.71.42h0A.58.58,0,0,1,167.67,180.21Z"/><rect class="cls-6" x="163.95" y="171.61" width="1.59" height="8.61" transform="translate(367.52 306.17) rotate(165.84)"/><path class="cls-9" d="M159.17,153.13h0a2.42,2.42,0,0,1,3,1.92l3,17.15a1.33,1.33,0,0,1-1,1.52h0a1.33,1.33,0,0,1-1.59-.9l-5.16-16.63A2.42,2.42,0,0,1,159.17,153.13Z"/><path class="cls-10" d="M167.13,163.4s1.74-1.15.51-2.52c0,0,1.93-1.24-.52-2.88a1.62,1.62,0,0,0-.37-2,12.2,12.2,0,0,0-4.68-1.91c-.56,0-8,1.78-8,1.78l-.84.16-4.19,16c3.47-.51,6.84-1.21,7.88-2.09,2.14-1.81,6.52-3.26,9.4-4.08C166.29,165.88,168.15,164.88,167.13,163.4Z"/><path class="cls-11" d="M159.89,157.17a.2.2,0,0,0,.13,0,13.78,13.78,0,0,1,2.59-.34,43.11,43.11,0,0,1,4.46,1.31.17.17,0,0,0,.11-.33,45.71,45.71,0,0,0-4.54-1.33,13.73,13.73,0,0,0-2.7.34.18.18,0,0,0-.13.21A.2.2,0,0,0,159.89,157.17Z"/><path class="cls-11" d="M160.78,160.53a.18.18,0,0,0,.13,0,12.57,12.57,0,0,1,2.39-.33,37.57,37.57,0,0,1,4.3.84.2.2,0,0,0,.22-.13.18.18,0,0,0-.14-.22,39,39,0,0,0-4.37-.85,13.09,13.09,0,0,0-2.49.34.19.19,0,0,0-.13.22A.14.14,0,0,0,160.78,160.53Z"/><path class="cls-11" d="M161.21,163.06a.22.22,0,0,0,.14,0,9.21,9.21,0,0,1,1.9-.29,24.88,24.88,0,0,1,3.83.78.18.18,0,0,0,.22-.13.17.17,0,0,0-.12-.21,23.15,23.15,0,0,0-3.93-.79,8.77,8.77,0,0,0-2,.3.18.18,0,0,0-.13.22A.22.22,0,0,0,161.21,163.06Z"/><path class="cls-10" d="M117.47,185.14a8.93,8.93,0,0,1,4-8.79c2.41-1.56,5.8-3.79,8.93-6,5.65-3.91,17.41-10,19.37-12.4s6.53-2.61,6.53-2.61l-.44,14.36a18.2,18.2,0,0,0-4.57,2.61c-1.74,1.53-10.23,20.68-23.29,20.9C120.91,193.37,118.1,189.21,117.47,185.14Z"/><polygon class="cls-6" points="163.44 195.49 168.97 197.12 165.15 203.04 163.44 195.49"/><path class="cls-10" d="M188.1,199.12s23.29-6.53,29.38-7,12.19,2.61,12.19,9.36-10,10.23-26.77,9.14l-16.76-1.09Z"/><path class="cls-10" d="M187,209.57a47.88,47.88,0,0,1-9.25-.44h0a2.35,2.35,0,0,1-.42-.13h0l-.08-.05a9.38,9.38,0,0,0-1.59-.68c-1.76-.88-3.47-2-4.09-2.18a5.21,5.21,0,0,0-2.43.58,1.39,1.39,0,0,1-1.69-.44,1.24,1.24,0,0,1-.08-1.26s-1.68-.71-.84-2.08c0,0-1.86-.76,0-2.57a1.42,1.42,0,0,1,0-1.8,10.62,10.62,0,0,1,3.71-2.39c.48-.09,7.2.22,7.2.22s8.07,1.9,8.52,1.9Z"/><path class="cls-11" d="M172.58,198.43a.15.15,0,0,1-.11,0,12.27,12.27,0,0,0-2.28.13,38.83,38.83,0,0,0-3.62,1.86.16.16,0,0,1-.21-.06.14.14,0,0,1,.06-.21c.12-.07,3-1.7,3.68-1.89a12.59,12.59,0,0,1,2.38-.14.16.16,0,0,1,.15.16A.13.13,0,0,1,172.58,198.43Z"/><path class="cls-11" d="M172.36,201.47a.15.15,0,0,1-.11,0,11.17,11.17,0,0,0-2.11.1,34.61,34.61,0,0,0-3.56,1.42.17.17,0,0,1-.21-.08.15.15,0,0,1,.08-.2,30.27,30.27,0,0,1,3.63-1.44,11.34,11.34,0,0,1,2.19-.11.15.15,0,0,1,.15.16A.17.17,0,0,1,172.36,201.47Z"/><path class="cls-11" d="M172.4,203.72a.14.14,0,0,1-.11,0,7.81,7.81,0,0,0-1.69.07,21.23,21.23,0,0,0-3.17,1.29.17.17,0,0,1-.21-.07.16.16,0,0,1,.07-.21,21.58,21.58,0,0,1,3.25-1.32,8.57,8.57,0,0,1,1.77-.07.16.16,0,0,1,.15.17A.24.24,0,0,1,172.4,203.72Z"/><path class="cls-10" d="M197.78,196.51s-7.94,1.53-10.11,1.74a32.91,32.91,0,0,1-6.34-.48l-1.28,4.4,6.53,7Z"/><path class="cls-10" d="M163.2,127.46s2.54,7,11.8,7.33,13.06-8,13.06-8a31.73,31.73,0,0,0-19.59-.85Z"/><path class="cls-10" d="M160.75,101.55,163,116.26s.54,5,5,5l.19,6.75a5.22,5.22,0,0,0,4.38,5,13.72,13.72,0,0,0,4.21,0,8.39,8.39,0,0,0,7.23-6.82c.13-1.92-2.46-10.64-2.46-10.64l-.51-4.4L177.88,94.3Z"/><path d="M173.87,107.09A.23.23,0,0,0,174,107a.21.21,0,0,0,0-.29s-3.33-2.51-5.61,0a.21.21,0,1,0,.31.28c2-2.2,4.92,0,5,.07A.2.2,0,0,0,173.87,107.09Z"/><path d="M165.14,107.14a.24.24,0,0,0,.15-.09.21.21,0,0,0-.07-.29c-.09-.06-2.32-1.45-3.41-.19a.2.2,0,0,0,0,.29.21.21,0,0,0,.3,0c.85-1,2.85.26,2.87.27A.17.17,0,0,0,165.14,107.14Z"/><path d="M169.81,108.56a.63.63,0,1,0,.53-.71A.62.62,0,0,0,169.81,108.56Z"/><path d="M163.11,108.94a.63.63,0,1,0,1.24-.19.62.62,0,0,0-.71-.52A.62.62,0,0,0,163.11,108.94Z"/><path d="M177.42,95.21l-1.1,5.39s-11.51,5.71-17.63,1.69-4.81-6.59-3.6-9.25c.6-1.31,3.95-4.3,8.81-3,2.66.72,4-2.85,7.15-1.63s7,3.57,6.79,4.76S177.42,95.21,177.42,95.21Z"/><path d="M176.9,93.17s4.75-1,6.78,3.44.6,7.09.76,8.47,2.5,10.49-4.11,10.78l-4.06-15,1.34-6.42Z"/><circle class="cls-10" cx="178.64" cy="107.01" r="3.77"/><path class="cls-11" d="M179.26,109.25a1.57,1.57,0,0,0,1.28-1.39,1.47,1.47,0,0,0-.84-1.61,1.78,1.78,0,0,0-1.95.36,1.74,1.74,0,0,1,.61-1,2.33,2.33,0,0,1,1.64-.35.1.1,0,0,0,.12-.09A.1.1,0,0,0,180,105a2.48,2.48,0,0,0-1.8.4,2,2,0,0,0-.75,1.5l0,.37.22-.3a1.65,1.65,0,0,1,1.94-.55,1.29,1.29,0,0,1,.72,1.4,1.36,1.36,0,0,1-1.11,1.2h0a.09.09,0,0,0-.09.11.1.1,0,0,0,.12.09Z"/><path class="cls-11" d="M177.42,115.48s1,8.36-9.31,10.73l-.14-5S174.91,121.56,177.42,115.48Z"/><path class="cls-11" d="M168.25,113.09a.12.12,0,0,0,.09-.09.1.1,0,0,0-.09-.12l-2.18-.37-.08-5a.11.11,0,0,0-.21,0l.09,5.15,2.35.41Z"/><path class="cls-12" d="M170.16,114.86l-4.11.51a2.43,2.43,0,0,0,2.26,1.41C169.82,116.59,170.16,114.86,170.16,114.86Z"/><path d="M174.59,101.08s1,7.83,1.22,8.23,1.32-.19,1.32-.19-1.24-4.87.94-5.84-.29-4.22-.29-4.22Z"/><path class="cls-8" d="M361.27,246.71l-.09.59s0,0,0,.07A41.59,41.59,0,0,1,320,282.75H34A31.06,31.06,0,0,1,3.17,247.62a2.36,2.36,0,0,0,0-.28l0-.13c0-.17,0-.34.07-.5A59.49,59.49,0,0,1,11,226q1.17-2,2.13-4H362.88A169.37,169.37,0,0,1,361.27,246.71Z"/><rect class="cls-6" x="227.4" y="130.85" width="64.65" height="2.77"/><path class="cls-5" d="M248.33,145.34a4.62,4.62,0,0,0-2.86-1.34l-6.54-.6v24.44h7a3.71,3.71,0,0,0,3.71-3.72v-15.5a4.64,4.64,0,0,0-1.36-3.28Zm-1.84,20.51a1.47,1.47,0,1,1,1.47-1.47A1.47,1.47,0,0,1,246.49,165.85Z"/><rect class="cls-8" x="238.93" y="129.08" width="3.2" height="14.63"/><path class="cls-5" d="M253.35,157.87c2.11,0,2.56-5.22,2.56-5.22v-12.3l-2.56,0Z"/><rect class="cls-8" x="253.35" y="128.98" width="1.38" height="11.34"/><path class="cls-5" d="M229.9,140.08v25.71s4.23-8.67,4.1-25.71Z"/><rect class="cls-8" x="229.9" y="128.74" width="1.95" height="11.34"/><path class="cls-5" d="M261.55,140.08v25.71s4.23-8.67,4.1-25.71Z"/><rect class="cls-8" x="261.55" y="128.74" width="1.95" height="11.34"/><rect class="cls-5" x="271.49" y="129.64" width="0.9" height="23.93"/><rect class="cls-8" x="271.1" y="127.96" width="1.7" height="11.34"/><path class="cls-5" d="M274.27,153h-4.66a1,1,0,0,0-1,1v6.47a1,1,0,0,0,1,1h4.66a1,1,0,0,0,1-1v-6.47A1,1,0,0,0,274.27,153Zm-4,6.92a.33.33,0,0,1-.33.33.32.32,0,0,1-.32-.33v-5.41a.32.32,0,0,1,.32-.33.33.33,0,0,1,.33.33Zm1.35,0a.32.32,0,0,1-.32.33.33.33,0,0,1-.33-.33v-5.41a.33.33,0,0,1,.33-.33.32.32,0,0,1,.32.33Zm1.36,0a.33.33,0,1,1-.66,0v-5.41a.33.33,0,1,1,.66,0Zm1.35,0a.33.33,0,0,1-.33.33.32.32,0,0,1-.32-.33v-5.41a.32.32,0,0,1,.32-.33.33.33,0,0,1,.33.33Z"/><rect class="cls-5" x="286.71" y="129.64" width="0.9" height="23.93"/><rect class="cls-8" x="286.31" y="127.96" width="1.7" height="11.34"/><rect class="cls-5" x="279.3" y="129.64" width="0.51" height="23.93"/><rect class="cls-8" x="278.91" y="127.96" width="1.28" height="11.34"/><path class="cls-5" d="M279.55,152.87c-2.93.42-1.18,7.42-1.18,7.42-.1-6,1.18-6,1.18-6s1.29,0,1.18,6C280.73,160.29,282.48,153.29,279.55,152.87Z"/><path class="cls-5" d="M287.16,156.83A3.8,3.8,0,0,0,291,153h-7.6A3.8,3.8,0,0,0,287.16,156.83Z"/><rect class="cls-13" x="229.73" y="128.74" width="0.36" height="37.06"/><rect class="cls-13" x="238.75" y="129.08" width="0.36" height="38.76"/><rect class="cls-13" x="253.17" y="128.98" width="0.36" height="28.89"/><rect class="cls-13" x="261.37" y="128.74" width="0.36" height="36.61"/><rect class="cls-13" x="270.92" y="127.96" width="0.36" height="11.34"/><rect class="cls-13" x="278.73" y="127.96" width="0.36" height="11.34"/><rect class="cls-13" x="286.13" y="127.96" width="0.36" height="11.34"/><g class="cls-14"><rect class="cls-15" x="49.93" y="151.67" width="0.75" height="1.95"/></g><g class="cls-14"><rect class="cls-15" x="68.22" y="151.67" width="0.75" height="1.95"/></g><g class="cls-14"><rect class="cls-15" x="86.51" y="151.67" width="0.75" height="1.95"/></g><g class="cls-14"><rect class="cls-15" x="104.81" y="151.67" width="0.75" height="1.95"/></g><path class="cls-5" d="M59.36,135a1.61,1.61,0,0,0-1.56.48c0-.43-.11-1.55-.11-1.55l-10.8.84s.22,6.72,5.21,6.45h0l1.47-.11h0a4.7,4.7,0,0,0,2.27-.81.16.16,0,0,0,.07,0h0c3-.44,4.36-2.15,4.42-3.65A1.49,1.49,0,0,0,59.36,135Zm.3,1.61c0,.81-.72,2.2-2.94,2.81a5.94,5.94,0,0,0,1-2.65c.26-.52.77-1.26,1.47-1.09C59.49,135.75,59.68,136.12,59.66,136.61Z"/><path class="cls-5" d="M51.14,153.34c-1.44-.41-3.51.38-4.85,3v0s0,.05,0,.07a4.54,4.54,0,0,0-1.48,1.9h0l-.57,1.36h0c-1.83,4.66,4.48,7,4.48,7l4.19-10s-1-.45-1.44-.59a1.61,1.61,0,0,0,1-1.33A1.5,1.5,0,0,0,51.14,153.34Zm.55,1.4c-.06.72-.92,1-1.49,1.06a5.83,5.83,0,0,0-2.83.12C48.64,154,50.18,153.79,51,154,51.42,154.14,51.72,154.43,51.69,154.74Z"/><path class="cls-8" d="M69.39,153.34c-1.44-.41-3.51.38-4.86,3v0s0,.05,0,.07a4.64,4.64,0,0,0-1.49,1.9h0l-.57,1.36h0c-1.82,4.66,4.49,7,4.49,7l4.18-10s-1-.45-1.43-.59a1.63,1.63,0,0,0,1-1.33A1.5,1.5,0,0,0,69.39,153.34Zm.55,1.4c-.06.72-.93,1-1.5,1.06a5.84,5.84,0,0,0-2.83.12c1.28-1.92,2.82-2.13,3.59-1.91C69.67,154.14,70,154.43,69.94,154.74Z"/><path class="cls-5" d="M87.64,153.34c-1.45-.41-3.51.38-4.86,3v0a.17.17,0,0,0,0,.07,4.55,4.55,0,0,0-1.49,1.9h0l-.56,1.36h0c-1.82,4.66,4.48,7,4.48,7l4.19-10s-1-.45-1.43-.59a1.6,1.6,0,0,0,.94-1.33A1.48,1.48,0,0,0,87.64,153.34Zm.55,1.4c-.06.72-.93,1-1.5,1.06a5.84,5.84,0,0,0-2.83.12c1.27-1.92,2.81-2.13,3.59-1.91C87.92,154.14,88.21,154.43,88.19,154.74Z"/><path class="cls-8" d="M105.89,153.34c-1.45-.41-3.51.38-4.86,3v0a.17.17,0,0,0,0,.07,4.55,4.55,0,0,0-1.49,1.9h0l-.57,1.36h0c-1.83,4.66,4.48,7,4.48,7l4.19-10s-1-.45-1.43-.59a1.6,1.6,0,0,0,.94-1.33A1.5,1.5,0,0,0,105.89,153.34Zm.55,1.4c-.06.72-.93,1-1.5,1.06a5.84,5.84,0,0,0-2.83.12c1.27-1.92,2.81-2.13,3.59-1.91C106.17,154.14,106.46,154.43,106.44,154.74Z"/><path class="cls-16" d="M43.26,138.37c-.38,1.45.45,3.5,3.15,4.79h.09a4.65,4.65,0,0,0,1.93,1.45h0l1.37.54h0c4.69,1.72,6.88-4.64,6.88-4.64l-10.08-4s-.42,1-.55,1.45a1.64,1.64,0,0,0-1.36-.92A1.49,1.49,0,0,0,43.26,138.37Zm1.39-.58c.72,0,1,.9,1.09,1.47a5.76,5.76,0,0,0,.18,2.83c-2-1.23-2.19-2.77-2-3.55C44.05,138.07,44.34,137.77,44.65,137.79Z"/><path class="cls-5" d="M58.07,144.65a1.62,1.62,0,0,0-1.6.35c0-.42,0-1.55,0-1.55H45.66s-.3,6.72,4.7,6.83h1.47a4.61,4.61,0,0,0,2.32-.63h.09c3-.21,4.51-1.81,4.7-3.3A1.49,1.49,0,0,0,58.07,144.65Zm.17,1.62c-.09.8-.88,2.14-3.14,2.57a5.93,5.93,0,0,0,1.2-2.56c.3-.49.87-1.2,1.55-1C58.15,145.4,58.3,145.79,58.24,146.27Z"/><path class="cls-17" d="M98.58,125.79s.48-6.71,3.08-5.4,4.73,9.84,5,10.09.2,8.07.2,8.07l-3-1.53S103,118.36,98.58,125.79Z"/><path class="cls-18" d="M101.5,111.91a26.66,26.66,0,0,1,7.42,14.16c1.59,9-3.44,11.58-3.44,11.58S104.77,118.84,101.5,111.91Z"/><path class="cls-17" d="M112.31,138.86s1-19.05,5.9-27.3c0,0-8.64,5.15-11.5,18.68-.17.77-.26,1.61-.38,2.43a13.11,13.11,0,0,0-.19,2.35c0,1.32.22,2.46.28,3.3C106.88,145.55,112.31,138.86,112.31,138.86Z"/><path class="cls-18" d="M112.15,130.77a15.42,15.42,0,0,1,3-7.48c1.2-1.57,2.58-2.77,3.66-1.91,2.41,1.89,2.89,13.66,2.89,13.66s-2.72-8.15-3.9-7.61-2.29,11.6-2.29,11.6l-4.45.36Z"/><path class="cls-19" d="M106.09,138.19a33.46,33.46,0,0,1,1.55-11.86,31,31,0,0,1,4.19-8.32,27.26,27.26,0,0,1,6.34-6.51l.08.12a27,27,0,0,0-6.31,6.48,31.82,31.82,0,0,0-5.71,20.09Z"/><path class="cls-19" d="M105.41,137.65s-.18-4.76-.76-10.26c-.54-5.08-1.53-11.88-3.22-15.45l.13-.06c1.7,3.59,2.69,10.4,3.23,15.49.58,5.51.76,10.23.76,10.28Z"/><path class="cls-19" d="M103.77,137s-.14-3.1-.59-6.2c-.59-4.09-1.45-6.39-2.47-6.65-.61-.16-1.31.4-2.07,1.66l-.12-.08c.8-1.32,1.55-1.9,2.22-1.72,1.11.28,2,2.56,2.58,6.77.46,3.11.59,6.19.59,6.22Z"/><path class="cls-19" d="M111.16,139.4H111l1.07-8.63a15.59,15.59,0,0,1,3-7.51c1-1.37,2-2.12,2.76-2.22a1.29,1.29,0,0,1,1,.29c1,.8,1.81,3.35,2.37,7.59.42,3.14.54,6.1.54,6.13h-.14c0-.12-.51-11.75-2.86-13.61a1.2,1.2,0,0,0-.91-.26c-.74.1-1.63.83-2.65,2.16a15.49,15.49,0,0,0-3,7.45Z"/><rect class="cls-19" x="114.35" y="129.63" width="2.04" height="0.14" transform="translate(-52.79 172.79) rotate(-62.72)"/><rect class="cls-19" x="114.4" y="130.8" width="1.93" height="0.14" transform="translate(-54.92 168.78) rotate(-61.15)"/><rect class="cls-19" x="105.69" y="117.93" width="0.14" height="1.92" transform="translate(-39.77 54.53) rotate(-24.49)"/><rect class="cls-19" x="105.75" y="119.3" width="0.14" height="1.4" transform="translate(-44.9 66.33) rotate(-28.99)"/><rect class="cls-19" x="101.55" y="120.68" width="0.14" height="1.52" transform="translate(-52.72 156.83) rotate(-62.99)"/><rect class="cls-19" x="101.83" y="121.66" width="0.14" height="0.94" transform="translate(-55.4 145.71) rotate(-58.69)"/><path class="cls-20" d="M102.3,136.53s.25,13.93,4,13.6h6.34c3.73.33,4-13.6,4-13.6A64.5,64.5,0,0,0,102.3,136.53Z"/><rect class="cls-19" x="110.16" y="140.45" width="5.93" height="0.14" transform="translate(-66.69 126.06) rotate(-46.57)"/><rect class="cls-19" x="111.13" y="142.35" width="3.42" height="0.14" transform="translate(-68.68 134.09) rotate(-48.98)"/><rect class="cls-21" x="42.08" y="150.29" width="76.75" height="1.38"/><rect x="42.08" y="150.16" width="76.75" height="0.25"/><rect class="cls-22" x="91.31" y="136.79" width="6.98" height="13.35" rx="0.16"/><g class="cls-14"><rect class="cls-15" x="91.73" y="139.4" width="6.14" height="9.68"/></g><rect class="cls-23" x="91.31" y="136.29" width="6.98" height="0.5" rx="0.07"/><rect class="cls-18" x="93.43" y="142.56" width="4.87" height="1.8"/><rect class="cls-22" x="64.16" y="130.53" width="8.11" height="19.62" rx="0.16"/><g class="cls-14"><rect class="cls-15" x="64.65" y="134.38" width="7.13" height="14.23"/></g><rect class="cls-24" x="64.16" y="129.87" width="8.11" height="0.74" rx="0.09"/><rect class="cls-8" x="66.62" y="139.02" width="5.65" height="2.65"/><rect class="cls-22" x="78.93" y="127.43" width="8.11" height="22.73" rx="0.16"/><g class="cls-14"><rect class="cls-15" x="79.42" y="131.88" width="7.13" height="16.48"/></g><rect class="cls-24" x="78.93" y="126.58" width="8.11" height="0.85" rx="0.1"/><rect class="cls-16" x="81.39" y="137.26" width="5.65" height="3.07"/><polygon points="64.29 150.29 64.04 150.29 64.04 130.56 72.28 130.56 72.28 130.81 64.29 130.81 64.29 150.29"/><polygon points="79.16 150.16 78.91 150.16 78.91 127.31 86.94 127.31 86.94 127.56 79.16 127.56 79.16 150.16"/><path class="cls-15" d="M50.68,154a.38.38,0,0,0-.76,0h0v.38h0a.38.38,0,0,0,.38.37.38.38,0,0,0,.38-.37h0V154Z"/><path class="cls-15" d="M69,154a.38.38,0,0,0-.75,0h0v.38h0a.38.38,0,0,0,.38.37.37.37,0,0,0,.37-.37h0V154Z"/><path class="cls-15" d="M87.27,154a.38.38,0,0,0-.76,0h0v.38h0a.38.38,0,0,0,.38.37.38.38,0,0,0,.38-.37h0V154Z"/><path class="cls-15" d="M105.56,154a.38.38,0,0,0-.75,0h0v.38h0a.38.38,0,0,0,.38.37.37.37,0,0,0,.37-.37h0V154Z"/><polygon class="cls-25" points="103.29 233.28 259.58 233.28 287.73 260.17 74.5 260.17 103.29 233.28"/><rect class="cls-26" x="74.5" y="260.17" width="213.23" height="2.51"/><g class="cls-27"><polygon class="cls-26" points="265.87 239.28 96.86 239.28 97.24 238.93 265.49 238.93 265.87 239.28"/><polygon class="cls-26" points="276.77 249.7 85.71 249.7 86.12 249.34 276.4 249.34 276.77 249.7"/></g><path class="cls-28" d="M227.67,231.29v.08a17.67,17.67,0,0,1-.79,5c0,.15-.09.3-.14.44h0a15.64,15.64,0,0,1-3.53,5.77l-.57.57c-3.86,3.65-9.6,5.59-16,5.59s-12-1.91-15.91-5.5c-.2-.19-.4-.38-.59-.58a15.69,15.69,0,0,1-3.63-5.9l-.15-.47a17.84,17.84,0,0,1-.76-4.91v-.08c.17-1.29,9.52-2.33,21-2.33Z"/><path class="cls-29" d="M227.67,231.32v.05c0,.24-.41.57-1.06.95-2.78,1.6-10.68,4-20,4a51,51,0,0,1-18.39-3.26c-1.63-.68-2.59-1.31-2.65-1.71a.09.09,0,0,1,0-.05,0,0,0,0,1,0,0c.17-1.29,9.52-3.3,21-3.3s20.87,2,21,3.3Z"/><path class="cls-30" d="M226.61,232.32c-2.78,1.6-9.45,4.18-19.82,4.18a48.3,48.3,0,0,1-18.55-3.42,5.21,5.21,0,0,1,4.15-1.47c2.73.53,7.14,1.42,9.35.55s4.88-2.49,8.93-1.34,5.2,2,7.72,1.34,5.88-1.55,7.41-.5A8.43,8.43,0,0,1,226.61,232.32Z"/><path class="cls-29" d="M226.88,236.36c0,.15-.09.3-.14.44h0a53.41,53.41,0,0,1-15.33,3.91,48.84,48.84,0,0,1-5,.25,49.57,49.57,0,0,1-8.68-.76,45.21,45.21,0,0,1-11.25-3.45l-.15-.47a44.51,44.51,0,0,0,11.48,3.58A51.56,51.56,0,0,0,226.88,236.36Z"/><path class="cls-29" d="M223.21,242.57l-.57.57a52.68,52.68,0,0,1-11.23,2.38c-1.66.16-3.32.25-5,.25a50.55,50.55,0,0,1-8.68-.76,47.67,47.67,0,0,1-7-1.78c-.2-.19-.4-.38-.59-.58a47.35,47.35,0,0,0,7.7,2A51.17,51.17,0,0,0,223.21,242.57Z"/><path class="cls-6" d="M227.17,225.87l-1.1-.79-.26-.17h0a2.74,2.74,0,0,0-3.55.79l-8.69,12.08-5.44-3.91a3.72,3.72,0,0,0,6,4.36h0v0h0l8.69-12.07a2,2,0,0,1,1.27-.8,3.4,3.4,0,0,1,2.57,1.55C227.48,228.32,228.36,226.72,227.17,225.87Z"/><path class="cls-28" d="M207,236.5s4.93-.16,6.68-.4,3.71-.59,3.71-.59-1.05,2.25-1.09,2.31-3.68,2.07-3.68,2.07h-3.45a8.6,8.6,0,0,1-1.4-.57C207.66,239.2,207,236.5,207,236.5Z"/><path class="cls-30" d="M206.32,234.67l2.54-1.67,4,3.18s-4.16.36-6.09.32S206.32,234.67,206.32,234.67Z"/><path class="cls-5" d="M244.09,227.79s5.15-3,7.84-3.48,6.93-5.47,12-2.88,10.8,6.37,10.8,6.37-4.85,3-5.8,3.16-8.42.33-10.51.38-8.5-.14-9.78-.57A27.4,27.4,0,0,1,244.09,227.79Z"/><path class="cls-31" d="M274.71,227.8c-17.33,4.39-30.62,0-30.62,0a14.46,14.46,0,0,0-2.12,2.82,6.45,6.45,0,0,0-1.11,3.3c.21,3.72,1.49,9.13-2.12,13.48S237,258.21,246.38,259s17.15-1.83,23.7-.43,10.8-5.3,7.62-13C274.84,238.52,277.21,231.21,274.71,227.8Z"/><path class="cls-32" d="M244.09,227.79s-6.55,3.89-4.18,7.09c1.81,2.45,1.31-4.27,8.43-.33,4.88,2.69,8.23,2,12.55-.07s5.81,2.12,8.92,1.7c5.17-.71,3.29-3.26,4.85-3.65.94-.24,1.41,3,2.4,1.1,1.52-2.87-2.35-5.83-2.35-5.83S259.47,232,244.09,227.79Z"/><rect class="cls-32" x="249.08" y="241.53" width="21.43" height="4.79"/><ellipse class="cls-28" cx="137.75" cy="245.97" rx="30.13" ry="9.2"/><g class="cls-33"><path class="cls-28" d="M137.75,252.69c-14.76,0-26.32-2.95-26.32-6.72s11.56-6.73,26.32-6.73,26.32,3,26.32,6.73S152.51,252.69,137.75,252.69Zm0-12.9C122.33,239.79,112,243,112,246s10.36,6.18,25.78,6.18,25.78-3.2,25.78-6.18S153.17,239.79,137.75,239.79Z"/></g><path class="cls-32" d="M120.16,236.49c2.74-1.58,6-1.06,7.29,1.16s.11,5.31-2.63,6.9-8.57,2.55-9.86.33S117.42,238.08,120.16,236.49Z"/><path class="cls-32" d="M151.91,236.82c2.73-1.59,6-1.07,7.29,1.15s.11,5.32-2.63,6.9-8.58,2.56-9.86.33S149.17,238.4,151.91,236.82Z"/><path class="cls-31" d="M131,242.21c-3.16.2-5.85-1.73-6-4.29s2.28-4.8,5.44-5,8.81,1.55,9,4.11S134.11,242,131,242.21Z"/><path class="cls-5" d="M130.77,246.94c-3,.95-6.09-.26-6.86-2.71s1-5.21,4-6.16,8.93-.64,9.7,1.81S133.79,246,130.77,246.94Z"/><path class="cls-5" d="M149,241.48c3.07.75,5.07,3.38,4.47,5.88s-3.6,3.92-6.67,3.17-8-4.08-7.36-6.58S145.88,240.74,149,241.48Z"/><path class="cls-34" d="M181.21,247.76h1.58l1-.95,3,1.12,1.49-.58,1.58,1.28-2,1.5s-4.07.59-4.15.59a5.77,5.77,0,0,1-1.8-.75A19.38,19.38,0,0,1,181.21,247.76Z"/><path class="cls-5" d="M189.87,248.63c-.08,3.08-2.13,5.54-4.65,5.54s-4.65-2.56-4.65-5.73c0-.2,0-.4,0-.62l1.45-.55.76,1.44,2.42-2.2,3.46,2.59Z"/><path class="cls-34" d="M194.47,243.34l-.53,1.22V246l-.87,2.54-1.74.55,1.31,2.3,3.48-2.77a12.3,12.3,0,0,0,0-2.93C195.88,245.19,194.47,243.34,194.47,243.34Z"/><path class="cls-5" d="M192.14,252.35l-.18,0-.25-1.26,3.19-2.91-1.71-2.79,1.56-.48-.28-1.53c3.11.83,7.53,3.68,7.08,6C201.07,251.92,195.25,252.94,192.14,252.35Z"/><path class="cls-34" d="M179.41,234.9l.81,1.43-1,1.67.46,1.34-.15.76,1.67,1.73-.66,1.49s1.85.18,2-.16,1.11-1.51.8-2.45-1.32-4.29-1.36-4.4S179.41,234.9,179.41,234.9Z"/><path class="cls-34" d="M174.73,238.05a15.72,15.72,0,0,0,.62,2c.1,0,2.45.34,2.45.34l.78,3.35s-5.47-.75-5.48-1-.39-3-.17-3.25S174.73,238.05,174.73,238.05Z"/><path class="cls-5" d="M178.39,241.27l.76,2.9c-3.08.91-8.55.7-9.37-1.63-.55-1.57,1.17-3.73,3.26-5.34l1.92.37-.5,2.67Z"/><path class="cls-5" d="M180.92,244.38l-.4-1.06,1.75-1.26-3.47-3.62,2.14-2.33-1.53-1.21a11.09,11.09,0,0,1,2.27.23c3.09.69,5.14,3.29,4.57,5.8C185.77,243.08,183.51,244.48,180.92,244.38Z"/><path class="cls-8" d="M83.67,204.27a.93.93,0,0,0-.83-1H80.77a.93.93,0,0,0-.83,1h0v1.91h3.73v-1.91Z"/><path class="cls-17" d="M76.64,212h0a8.47,8.47,0,0,0-1.78,3.09c0,.78,0,2,0,3.55v.66c0,4.28,0,.33,0,5.75,0,1.19,0,2.35,0,3.43,0,4.45,0,7.7,0,7.7a1.8,1.8,0,0,0,1.47,1.19c1.12.09,5.41,0,5.42,0s4.3.09,5.41,0a1.82,1.82,0,0,0,1.48-1.19s0-3.3,0-7.79c0-1.1,0-2.27,0-3.47,0-5.37,0-1.31,0-5.55v-.63c0-1.58,0-2.85,0-3.65A8.47,8.47,0,0,0,87,212h0c-1.33-1.33-2.94-2.84-2.94-2.84v-2.67l.33-.33a.44.44,0,0,0,.13-.32v-.31a.45.45,0,0,0-.44-.45H79.56a.45.45,0,0,0-.44.45v.31a.48.48,0,0,0,.13.32l.33.33v2.67S78,210.67,76.64,212Z"/><g class="cls-35"><path class="cls-5" d="M83,235.7c.36.62,4.32.11,4.72-.07s0-19.45-.44-21-3.83-3.81-3.83-3.81c-.3-.21-1.17.25-.52,1.28S82.62,235.07,83,235.7Z"/></g><g class="cls-35"><path class="cls-5" d="M77.55,213.51a3.23,3.23,0,0,0-1.25,2c0,1.13.06,19.63.37,20.06s1.07.55,1.23.39-.42-20.78-.27-21.12S78,213.08,77.55,213.51Z"/></g><path class="cls-36" d="M48,206.41h0l-3.1.39s-1.8,6.46-3.23,8.29-2.21,3.31-2.22,5.27S39.3,244,39.3,244s.27,5.39,5.37,6.12h3.2l3.11,0c5.1-.7,5.42-6.09,5.42-6.09s.08-21.65.08-23.61-.76-3.44-2.17-5.28-3.18-8.32-3.18-8.32l-3.1-.41H48Z"/><path class="cls-37" d="M49.31,219.75c1.43-.81,2-.75,2.61-1.38A10.26,10.26,0,0,0,53,215.64a3.38,3.38,0,0,0-3.73.11c-1.75,1.36-3.8,0-3.8,0a16.82,16.82,0,0,0,.52,3.14C46.24,219,47.88,220.57,49.31,219.75Z"/><path class="cls-38" d="M50.62,249.28c4.53-.65,4.81-6.08,4.81-6.08s.07-20.25.08-22.08a7.88,7.88,0,0,0-1.93-4.94l0,0a1.78,1.78,0,0,0-2.65-.37A5.88,5.88,0,0,1,49.3,217c-1,.34-2.26-.65-3.8-1.33-2.92-1.3-5.14,3.53-5.15,5.36s-.08,22.07-.08,22.07.24,5.44,4.76,6.12Z"/><path class="cls-8" d="M44.54,205.16a1.24,1.24,0,0,0,0,2.48l7.12,0v0a1.23,1.23,0,0,0,1-1.21,1.26,1.26,0,0,0-1-1.23h0Z"/><g class="cls-27"><path class="cls-38" d="M51.41,212c.31-.1.37-.74.14-1.41s-.68-1.13-1-1-.38.74-.14,1.42S51.1,212.1,51.41,212Z"/></g><path class="cls-8" d="M63.86,205.51a1.31,1.31,0,0,0-1.19-1.42H59.73a1.31,1.31,0,0,0-1.19,1.42h0v2.73h5.32v-2.73Z"/><path class="cls-6" d="M53.85,216.52h0c-.08.08-2.19,2.49-2.54,4.4,0,1.11,0,2.86,0,5.05v.94c0,6.1,0,.47,0,8.19,0,1.7,0,3.35,0,4.89,0,6.33.06,11,.06,11a2.58,2.58,0,0,0,2.1,1.7c1.59.12,7.71,0,7.71,0s6.12.12,7.71,0A2.58,2.58,0,0,0,71,251s0-4.7.06-11.09c0-1.56,0-3.23,0-5,0-7.63,0-1.85,0-7.89v-.9c0-2.26,0-4.07,0-5.2-.34-1.91-2.46-4.32-2.53-4.4h0c-1.89-1.9-4.18-4.05-4.18-4.05v-3.8l.47-.47a.64.64,0,0,0,.19-.45v-.44a.64.64,0,0,0-.64-.64H58a.64.64,0,0,0-.64.64v.44a.64.64,0,0,0,.19.45l.47.47v3.8S55.74,214.62,53.85,216.52Z"/><g class="cls-35"><path class="cls-5" d="M62.86,250.26c.51.9,6.15.16,6.72-.09s.06-27.69-.62-29.9-5.46-5.41-5.46-5.41c-.43-.31-1.67.35-.75,1.81S62.36,249.37,62.86,250.26Z"/></g><g class="cls-35"><path class="cls-5" d="M55.14,218.68a4.52,4.52,0,0,0-1.77,2.89c-.06,1.61.08,28,.52,28.56s1.53.8,1.74.56-.6-29.58-.38-30.07S55.81,218.06,55.14,218.68Z"/></g><path class="cls-17" d="M331.9,150.63s-1,8.46-2.31,12.3-2.5,7.52-1.55,16.75,1.54,10,1.76,12.39-.13,12.48.39,14.15-3,13.2-3.25,18.15c-.08,1.49-.22,3.19-.34,4.92h.63a36.55,36.55,0,0,1,1.33-6.88c2.74-9.23,1.54-10.42,6.16-16.19s4.95-17.74,4.95-17.74,2.22-13.58,0-19.56S337.28,157,331.9,150.63Z"/><path class="cls-17" d="M317.46,197.58c2.17-4.61-1-16.53,2.07-21.84s1.51-13.66.8-16.86.07-5.39.71-8.77-.71-8.28-.71-8.28c-.11,4.19-3.3,9.91-5.61,13.58s-6.66,13.68-6.15,18.21.25,4.87.25,4.87c-1.62,6.06,0,7.77-.51,14.35s3.68,6.07,3.85,10.26,5.64,11.28,8.17,16.32c1.32,2.62,1.8,6.63,2,9.87h2c-.78-8.21-4.11-13.92-6.11-18.5C315.66,204.89,315.28,202.2,317.46,197.58Z"/><path class="cls-18" d="M346.6,184.88c-.52,2.22-.63,3.75-1.93,5.51s-4.51,6.38-4.06,10.44-4.71,10.43-4.63,13.82-.88,4.91-4,7.8c-2.44,2.24-6,4.81-8.69,9.58l1.23.55a18.07,18.07,0,0,1,3.86-5.46c2.89-2.38,8.12-5.21,9.36-7.7s3.63-1,5.09-5.19,2.91-4.72,3.56-8.84c0,0-.06-.28,1.47-2.89s1.59-9.85,1.18-12.7-.8-7.19.26-9.76A15.18,15.18,0,0,0,346.6,184.88Z"/><path class="cls-18" d="M314.56,222.45c-3.14-2.89-4.1-4.42-4-7.8s-5.07-9.76-4.63-13.82-2.76-8.69-4.06-10.44-1.4-3.29-1.93-5.51a15.23,15.23,0,0,0-2.66-4.84c1.06,2.57.67,6.91.26,9.76s-.36,10.09,1.17,12.7,1.47,2.89,1.47,2.89c.65,4.12,2.1,4.71,3.56,8.84s3.86,2.7,5.1,5.19,6.46,5.32,9.36,7.7a18,18,0,0,1,3.85,5.46l1.24-.55C320.57,227.26,317,224.69,314.56,222.45Z"/><path d="M316.06,223.6l-1.41-1.25c-3.06-2.8-4.06-4.31-4-7.7,0-1.58-1-3.77-2.16-6.08-1.33-2.73-2.71-5.56-2.47-7.72.4-3.61-2-7.73-4.09-10.54a9.88,9.88,0,0,1-1.64-4.27c-.08-.38-.17-.77-.27-1.19a15,15,0,0,0-2.69-4.89l-.57-.69.34.82c.8,1.94.89,5.29.26,9.69-.44,3.05-.32,10.22,1.19,12.79a12.56,12.56,0,0,1,1.45,2.81h.13l-.13,0,.26.06a11.36,11.36,0,0,0-1.48-3c-1.48-2.52-1.59-9.6-1.16-12.61.57-4,.57-7,0-9a13.13,13.13,0,0,1,2.14,4.13c.1.42.19.81.27,1.19a10,10,0,0,0,1.69,4.37c2.94,4,4.34,7.56,4,10.35-.25,2.24,1.15,5.1,2.5,7.87,1.11,2.28,2.17,4.44,2.13,5.95-.08,3.5,1,5,4.07,7.91l1.41,1.25a31,31,0,0,1,7.19,8.17l-1,.44a18,18,0,0,0-3.83-5.39l-.17.2a18,18,0,0,1,3.82,5.42l.06.11,1.49-.66-.08-.12A30.83,30.83,0,0,0,316.06,223.6Z"/><path d="M319.52,213.31c-.42-.9-.82-1.76-1.17-2.58-2.5-5.75-3-8.45-.77-13.09,1-2.14.88-5.79.74-9.65-.17-4.59-.34-9.34,1.33-12.19,2.17-3.72,2.45-9.58.81-17a14.76,14.76,0,0,1,.35-6.91c.12-.57.24-1.16.37-1.8.63-3.37-.71-8.3-.72-8.35l-.24-.86,0,.89c-.09,3.16-2,7.84-5.59,13.52-2.46,3.93-6.68,13.85-6.17,18.29l.26,0c-.5-4.39,3.69-14.22,6.13-18.11,3.34-5.32,5.21-9.62,5.57-12.8a20.51,20.51,0,0,1,.51,7.4c-.12.64-.24,1.23-.36,1.8-.52,2.45-.94,4.39-.35,7,1.63,7.31,1.35,13.1-.78,16.77-1.71,2.91-1.53,7.7-1.37,12.33.14,3.83.27,7.45-.72,9.53-2.23,4.73-1.77,7.47.77,13.31.36.82.76,1.68,1.18,2.59,1.89,4,4.24,9.09,4.91,15.73h-1.76c-.16-3-.64-7.13-2-9.8l-.24.12c1.34,2.66,1.8,6.81,2,9.82v.13h2.31v-.15C323.82,222.52,321.44,217.41,319.52,213.31Z"/><path class="cls-18" d="M315.14,169.94s-1.71,7.69-.42,11.87,2.81,7.44,2.73,13.76,4.87,8.72,4.78,12.22a31.25,31.25,0,0,0,2,10.08c.6,1.79.27,6.76.16,11.42h1.38a95.19,95.19,0,0,0,.6-10.56c-.17-3,1.19-5.39,1.36-10.6s1.29-9.91-1-16.49S324.8,177.2,315.14,169.94Z"/><path d="M326.72,214.41a16.42,16.42,0,0,0-.52,4.33,87.26,87.26,0,0,1-.59,10.42H324.5c0-.92.05-1.85.08-2.77.12-3.66.23-7.12-.25-8.56a30.8,30.8,0,0,1-2-10c0-1.54-.86-2.85-1.9-4.36-1.38-2-2.94-4.29-2.89-7.86a31.67,31.67,0,0,0-2-11.64c-.23-.7-.47-1.42-.7-2.16-1.14-3.72.13-10.35.39-11.6,7.26,5.53,8.72,11.51,10,16.79.4,1.65.78,3.21,1.31,4.72l.25-.08c-.52-1.51-.9-3.06-1.3-4.7-1.31-5.37-2.8-11.45-10.28-17.07l-.16-.13-.05.21c0,.07-1.7,7.77-.42,11.94.22.74.46,1.46.69,2.16a31.32,31.32,0,0,1,2,11.56c-.05,3.65,1.53,6,2.93,8,1,1.47,1.89,2.75,1.85,4.21a31.56,31.56,0,0,0,2,10.13c.47,1.39.36,4.83.24,8.46,0,1-.06,1.94-.08,2.91v.14h1.64v-.12a94.51,94.51,0,0,0,.6-10.59,15.54,15.54,0,0,1,.52-4.25,34.31,34.31,0,0,0,.85-6.33h-.27A32.86,32.86,0,0,1,326.72,214.41Z"/><path d="M338.23,163.74c-1.17-4.26-2.37-8.66-6.23-13.2l-.2-.23,0,.3c0,.09-1,8.49-2.3,12.28s-2.51,7.53-1.55,16.81l.26,0c-.95-9.22.26-12.85,1.55-16.69,1.13-3.41,2.07-10.48,2.27-12,3.67,4.41,4.84,8.7,6,12.86.46,1.69.94,3.44,1.58,5.15,2.18,5.88,0,19.37,0,19.52s-.39,12-4.93,17.65c-3.22,4-3.64,5.91-4.49,9.66-.38,1.67-.85,3.75-1.68,6.58a36.42,36.42,0,0,0-1.33,6.79h-.37c0-.43.07-.85.1-1.27.09-1.25.18-2.43.23-3.51a75.94,75.94,0,0,1,1.9-10.22c.86-3.82,1.61-7.11,1.34-8l-.25.08c.25.8-.53,4.22-1.35,7.84a74.38,74.38,0,0,0-1.9,10.27c-.06,1.08-.15,2.26-.24,3.5,0,.47-.07.94-.1,1.41v.15h.89v-.12a37,37,0,0,1,1.33-6.86c.84-2.84,1.31-4.93,1.69-6.6.87-3.83,1.26-5.58,4.44-9.55,4.59-5.74,5-17.69,5-17.79s2.21-13.69,0-19.64C339.16,167.16,338.69,165.42,338.23,163.74Z"/><path d="M346.47,184.85c-.1.42-.18.81-.26,1.19a9.77,9.77,0,0,1-1.65,4.27c-2.08,2.81-4.48,6.93-4.08,10.54l.26,0c-.31-2.79,1.09-6.37,4-10.35a10.07,10.07,0,0,0,1.69-4.37c.08-.38.16-.77.26-1.19a13.13,13.13,0,0,1,2.14-4.13c-.57,2-.57,5.07,0,9,.44,3,.33,10.09-1.15,12.61a13.9,13.9,0,0,0-1.49,2.94,13.55,13.55,0,0,1-1.79,5,24.05,24.05,0,0,0-1.76,3.82,4.86,4.86,0,0,1-3,3.32,3.75,3.75,0,0,0-2.12,1.85c-.82,1.66-3.45,3.47-6,5.23-1.23.85-2.4,1.65-3.34,2.43a18,18,0,0,0-3.83,5.39l-1-.44a30.81,30.81,0,0,1,7.18-8.17l1.41-1.25-.18-.2c-.43.4-.91.81-1.41,1.25a30.83,30.83,0,0,0-7.31,8.37l-.07.12,1.48.66.06-.11a18.2,18.2,0,0,1,3.82-5.42c.93-.76,2.09-1.56,3.32-2.41,2.57-1.78,5.23-3.61,6.08-5.33a3.44,3.44,0,0,1,2-1.72,5.15,5.15,0,0,0,3.11-3.48,24.16,24.16,0,0,1,1.74-3.79,13.77,13.77,0,0,0,1.83-5.08v0h0a13.16,13.16,0,0,1,1.45-2.8c1.51-2.57,1.63-9.74,1.19-12.79-.63-4.4-.55-7.75.25-9.69l.34-.82-.57.69A15,15,0,0,0,346.47,184.85Z"/><path class="cls-7" d="M308.26,218.89s.57,31.3,8.95,30.57h14.25c8.38.73,9-30.57,9-30.57C332.48,217.69,316.19,217.69,308.26,218.89Z"/><path class="cls-18" d="M21.58,60.86a7.86,7.86,0,0,1,6.86,3,8.15,8.15,0,0,1,1.69,7.26,14.35,14.35,0,0,1-4.81,7.49q-5.47,4.91-10.71,10.2c-.12.13-.13.24,0,.33l11.5,11.33c.24.23.22.5-.07.79l-.43.44c-.28.29-.55.32-.79.09L.15,78c-.24-.23-.19-.52.14-.86Q6.49,70.76,13,64.91C15.87,62.36,18.76,61,21.58,60.86Zm6.81,10.42a6.87,6.87,0,0,0-1.48-6.06,6.72,6.72,0,0,0-5.83-2.6A11.77,11.77,0,0,0,14,66Q8.1,71.21,2.48,76.88c-.13.13-.15.24,0,.34L13.28,87.91c.1.09.21.08.33,0q5.27-5.33,10.77-10.26A11.78,11.78,0,0,0,28.39,71.28Z"/><path class="cls-18" d="M32.56,53.87A1.88,1.88,0,0,1,31,53.12a1.78,1.78,0,0,1-.25-1.7,3.46,3.46,0,0,1,1.35-1.76,3.5,3.5,0,0,1,2.07-.77,1.83,1.83,0,0,1,1.77,2.5A3.55,3.55,0,0,1,34.6,53.1,3.51,3.51,0,0,1,32.56,53.87ZM51.7,78,37.26,58.69c-.2-.27-.13-.53.23-.8L38,57.5c.35-.26.63-.26.83,0L53.14,77c.2.27.14.53-.18.76l-.48.36C52.16,78.32,51.9,78.31,51.7,78Z"/><path class="cls-18" d="M75.77,60.42a7.58,7.58,0,0,0,1.31-4.52.57.57,0,0,1,.47-.64l.47-.14c.4-.1.61,0,.65.34a8.94,8.94,0,0,1-1.46,5.43,13.77,13.77,0,0,1-4.86,4.53,12.76,12.76,0,0,1-6.67,2,9,9,0,0,1-5.71-2,11.37,11.37,0,0,1-1.77-1.87c-.56-.73-1.31-1.83-2.27-3.28s-1.52-2.37-2-3.18a11.06,11.06,0,0,1-1-2.3,8.13,8.13,0,0,1,.71-6.21,13.83,13.83,0,0,1,5.52-5.51,14.11,14.11,0,0,1,7.72-2.22,7.78,7.78,0,0,1,5.79,2.61A11,11,0,0,1,74,45.34q.66,1.13,1.71,3.12c.17.32.08.58-.28.77q-8.93,4.71-17.52,10.25c-.14.09-.17.19-.1.3.64,1,1.22,1.85,1.76,2.6a9.32,9.32,0,0,0,1.28,1.54,7,7,0,0,0,4.86,2,10.9,10.9,0,0,0,6-1.73A11.74,11.74,0,0,0,75.77,60.42ZM55.17,49.08a6.7,6.7,0,0,0-.46,5.31,19.94,19.94,0,0,0,2.19,4c.07.12.17.13.31,0q8-5.16,16.31-9.62c.14-.07.19-.17.12-.29a19.14,19.14,0,0,0-2.39-3.78,6.94,6.94,0,0,0-4.93-2.19,13,13,0,0,0-11.15,6.57Z"/><path class="cls-18" d="M93.67,27.06c.35,0,.53.13.54.49s0,.45-.08.67-.22.52-.65.59a9.23,9.23,0,0,0-3.06.76,9.11,9.11,0,0,0-3.78,2.81,8,8,0,0,0-1.69,4,7.31,7.31,0,0,0,.64,4.09q3.16,6.85,6.34,13.72c.14.31,0,.54-.32.7l-.52.25c-.35.16-.6.09-.74-.21Q85.22,44,80.08,33.1c-.14-.3,0-.55.37-.73L81,32.1c.39-.18.66-.12.8.19.54,1.16,1.07,2.33,1.61,3.5,0,.09.1.13.16.12s.1-.07.09-.18a9.17,9.17,0,0,1,1.89-4.55A10.46,10.46,0,0,1,90,28,10.93,10.93,0,0,1,93.67,27.06Z"/><path class="cls-18" d="M114.93,19.73c.36,0,.52.18.49.54s-.08.44-.13.66-.27.5-.7.52a9,9,0,0,0-3.1.47,9.14,9.14,0,0,0-4,2.45,8.05,8.05,0,0,0-2,3.77,7.42,7.42,0,0,0,.27,4.12l5.07,14.23c.11.32,0,.54-.38.67l-.54.19c-.36.13-.59,0-.71-.28q-4.12-11.3-8.24-22.6c-.12-.32,0-.54.43-.69l.6-.21c.4-.14.66-.06.77.26L104,27.45c0,.1.08.14.15.14s.1-.06.11-.17a9,9,0,0,1,2.26-4.35,10.38,10.38,0,0,1,4.62-2.77A10.6,10.6,0,0,1,114.93,19.73Z"/><path class="cls-18" d="M142.7,36.07a7.39,7.39,0,0,0,2.58-3.85.55.55,0,0,1,.63-.47l.48,0c.4,0,.57.21.5.52a8.81,8.81,0,0,1-3,4.67A13.1,13.1,0,0,1,138,39.7a12.13,12.13,0,0,1-6.78-.24,8.94,8.94,0,0,1-4.7-3.67,11.06,11.06,0,0,1-1.09-2.32c-.29-.87-.67-2.14-1.12-3.81-.41-1.51-.7-2.72-.88-3.62a12,12,0,0,1-.26-2.49,8,8,0,0,1,2.51-5.62,13.3,13.3,0,0,1,6.77-3.44,13.67,13.67,0,0,1,7.85.34,7.77,7.77,0,0,1,4.6,4.28,10.71,10.71,0,0,1,.68,2.17q.28,1.26.66,3.48c.06.36-.11.57-.5.64q-9.73,1.65-19.35,4.12c-.15,0-.21.13-.18.26.3,1.12.58,2.13.85,3a8.84,8.84,0,0,0,.73,1.85,7,7,0,0,0,3.91,3.43,10.49,10.49,0,0,0,6.06.27A11.42,11.42,0,0,0,142.7,36.07ZM127,18.85a6.63,6.63,0,0,0-2,4.86,20.93,20.93,0,0,0,.84,4.42c0,.13.13.18.29.14q8.94-2.31,18-3.9c.16,0,.22-.11.2-.24a20.22,20.22,0,0,0-1.08-4.32,7,7,0,0,0-3.93-3.62A12.55,12.55,0,0,0,127,18.85Z"/><path class="cls-18" d="M153.68,1.44a.36.36,0,0,1,0,.42q-1.71,4.53-3.26,9.08a.71.71,0,0,1-.64.49l-.37.06c-.46.06-.66-.09-.59-.47q1.31-4.56,2.75-9.1a.79.79,0,0,1,.73-.49l.85-.11A.55.55,0,0,1,153.68,1.44Z"/><path class="cls-18" d="M164.4,34.56a9,9,0,0,1-3.71-1.93,4.81,4.81,0,0,1-1.64-3c0-.24-.05-.49-.08-.74s.13-.52.52-.56l.53-.06c.39,0,.6.1.64.43s.05.46.07.7A3.79,3.79,0,0,0,162,31.76a7.36,7.36,0,0,0,3.08,1.58,12.67,12.67,0,0,0,4.31.35,10.56,10.56,0,0,0,5.68-1.85,4.58,4.58,0,0,0,2.09-3.95,3.33,3.33,0,0,0-1.25-2.6,7.75,7.75,0,0,0-2.8-1.39c-1.07-.29-2.72-.66-5-1.06s-3.91-.78-5.28-1.14a9.78,9.78,0,0,1-3.52-1.64,4.31,4.31,0,0,1-1.71-3,5.18,5.18,0,0,1,2.36-4.92,16.5,16.5,0,0,1,15.31-1c2,1.12,3,2.6,3.09,4.43v.15q0,.5-.6.51l-.62,0c-.41,0-.62-.14-.63-.47v-.15A4.1,4.1,0,0,0,174,12.09a14.22,14.22,0,0,0-12.6.84,4,4,0,0,0-2,3.78,3.16,3.16,0,0,0,1.36,2.34,9.3,9.3,0,0,0,2.91,1.33c1.15.31,2.72.63,4.72,1,2.37.43,4.22.86,5.56,1.24a9.1,9.1,0,0,1,3.44,1.83,4.38,4.38,0,0,1,1.5,3.34,5.78,5.78,0,0,1-2.51,4.92A12.29,12.29,0,0,1,169.58,35,15.32,15.32,0,0,1,164.4,34.56Z"/><path class="cls-18" d="M220.78,18.8s.05.07.17.12a10,10,0,0,1,4.65,4,8.07,8.07,0,0,1,.89,5.6,8.49,8.49,0,0,1-4.19,6.14A12.71,12.71,0,0,1,214,36q-6.48-.83-13-1.28c-.38,0-.55-.21-.53-.54L202.66.46c0-.34.25-.49.69-.46Q210.69.52,218,1.46c3.79.48,6.71,1.75,8.7,3.7A7.36,7.36,0,0,1,229,12.07a7.17,7.17,0,0,1-2.58,4.45A11,11,0,0,1,221,18.73C220.85,18.74,220.79,18.77,220.78,18.8ZM204.54,1.69q-.51,7.14-1,14.29c0,.13.06.2.23.21q6.13.46,12.25,1.25a12.77,12.77,0,0,0,7.48-.94,6.23,6.23,0,0,0,3.6-4.7,6.33,6.33,0,0,0-2-5.84,12.29,12.29,0,0,0-7.29-3.12q-6.48-.84-13-1.33C204.65,1.5,204.55,1.56,204.54,1.69Zm16.71,31.74a7.26,7.26,0,0,0,3.5-5.24A6.87,6.87,0,0,0,223,22a11.4,11.4,0,0,0-7.07-3.19q-6.1-.78-12.24-1.25c-.17,0-.25.05-.26.18q-.57,7.72-1.12,15.43c0,.14.06.21.21.22q5.86.44,11.72,1.19A10.71,10.71,0,0,0,221.25,33.43Z"/><path class="cls-18" d="M256.76,21.65a7.32,7.32,0,0,1,.74,6.53Q255,36.07,252.57,44c-.1.32-.33.42-.69.31l-.55-.17c-.36-.12-.5-.33-.4-.65l.75-2.46a.17.17,0,0,0,0-.17.16.16,0,0,0-.21,0,9.52,9.52,0,0,1-4.57,1.42,17,17,0,0,1-5.54-.55,13,13,0,0,1-6-3.17,5.72,5.72,0,0,1-1.58-5.66,6.21,6.21,0,0,1,4.37-4.8c2.43-.86,5.57-.82,9.33.2,2.42.65,4.84,1.35,7.25,2.08.15.05.25,0,.29-.12l.81-2.66a6.09,6.09,0,0,0-.62-5.32c-1-1.57-3-2.8-6-3.59a12.55,12.55,0,0,0-6-.34,4.76,4.76,0,0,0-3.45,2.4.61.61,0,0,1-.82.23l-.58-.24c-.39-.15-.54-.34-.45-.55a6.17,6.17,0,0,1,4.3-3.12,14.72,14.72,0,0,1,7.44.31C253.1,18.25,255.49,19.73,256.76,21.65Zm-8,19A5.16,5.16,0,0,0,252.87,37c.53-1.72,1-3.44,1.58-5.17,0-.13,0-.21-.18-.26-2.41-.73-4.84-1.43-7.27-2.08a14.21,14.21,0,0,0-7.76-.25,5.06,5.06,0,0,0-3.8,3.9,4.71,4.71,0,0,0,1.19,4.52,10.31,10.31,0,0,0,5.08,2.7A14.64,14.64,0,0,0,248.73,40.62Z"/><path class="cls-18" d="M262.11,47.17,273.6,15.48c.11-.31.37-.39.79-.24l.62.23c.42.15.57.39.45.7L267.72,37a.15.15,0,0,0,0,.18.17.17,0,0,0,.21,0q9.46-3.25,19.55-5.7a1.19,1.19,0,0,1,.8.1l.88.4c.27.12.41.25.42.38s-.12.23-.38.29q-5,1.19-9.84,2.58a.19.19,0,0,0-.16.2q1.11,9.72,1.55,19.35l0,.2c-.12.24-.33.29-.65.14l-.57-.27a.63.63,0,0,1-.41-.63c-.29-6.05-.77-12.15-1.45-18.26a.22.22,0,0,0-.14-.17.26.26,0,0,0-.19,0q-5.22,1.53-10.27,3.3a.32.32,0,0,0-.2.19l-3.14,8.46c-.12.31-.35.4-.71.27l-.54-.2C262.12,47.71,262,47.49,262.11,47.17Z"/><path class="cls-18" d="M301.74,64.21a7.6,7.6,0,0,0,4.57-1.06.56.56,0,0,1,.79.09l.36.34c.28.3.3.54,0,.73a9,9,0,0,1-5.44,1.37,14,14,0,0,1-6.34-2,12.76,12.76,0,0,1-5-4.76,8.91,8.91,0,0,1-1.12-5.86,11,11,0,0,1,.72-2.44c.36-.83.92-2,1.7-3.55s1.28-2.47,1.74-3.25a12.19,12.19,0,0,1,1.47-2,8,8,0,0,1,5.67-2.44,13.83,13.83,0,0,1,7.47,2A14.41,14.41,0,0,1,314.13,47a7.69,7.69,0,0,1,.68,6.28,10,10,0,0,1-.93,2c-.42.75-1,1.75-1.82,3-.2.31-.47.35-.82.13Q302.63,53,293.66,48.38c-.14-.07-.25-.05-.31.07-.52,1-1,1.95-1.36,2.78a9.13,9.13,0,0,0-.68,1.84,7,7,0,0,0,.69,5.15,11,11,0,0,0,4.45,4.3A12.16,12.16,0,0,0,301.74,64.21Zm-.52-23.29a6.62,6.62,0,0,0-4.78,2.21A19.75,19.75,0,0,0,294.12,47c-.06.12,0,.21.13.29q8.36,4.32,16.41,9.36c.14.09.25.08.32,0A19.53,19.53,0,0,0,313,52.66a6.92,6.92,0,0,0-.6-5.33,13.18,13.18,0,0,0-11.22-6.41Z"/><path class="cls-18" d="M339.94,63.84a.42.42,0,0,1-.14.7l-.63.26c-.29.15-.57,0-.86-.3a10.76,10.76,0,0,0-6.69-4.34,8,8,0,0,0-4.32.41,7,7,0,0,0-3.22,2.52l-8.66,12.15c-.19.27-.45.29-.77.06l-.48-.34c-.32-.23-.39-.48-.2-.75L327.6,54.74c.19-.27.47-.28.82,0l.54.38c.36.26.44.52.25.79L327,59c-.05.09-.06.15,0,.2s.11,0,.21,0a9.05,9.05,0,0,1,4.93-.53A11.2,11.2,0,0,1,337.2,61,11.88,11.88,0,0,1,339.94,63.84Z"/><path class="cls-18" d="M324.12,94.56l.22-.26c.22-.25.47-.25.76,0l.18.15a7.82,7.82,0,0,0,3,1.71,5.44,5.44,0,0,0,3.08-.32c1.17-.42,3-1.22,5.41-2.37.14,0,.21-.11.2-.22q4.27-12.39,7.61-25.33l.07-.19c.15-.18.38-.14.68.12l.51.43a.81.81,0,0,1,.36.82Q343,80.94,338.94,92.31a.18.18,0,0,0,.09.18.28.28,0,0,0,.22,0q11-4.84,22.54-8.87a.81.81,0,0,1,.85.31l.43.44c.35.35.34.61,0,.77a287.52,287.52,0,0,0-27.75,10.7,24.89,24.89,0,0,1-4.82,1.7,5.5,5.5,0,0,1-3.08-.15,10.71,10.71,0,0,1-3-2l-.3-.26C323.9,95,323.91,94.81,324.12,94.56Z"/></g></g></svg>